<svg width="753" height="756" viewBox="0 0 753 756" fill="none" xmlns="http://www.w3.org/2000/svg">
<path d="M370.888 679.841C375.848 679.929 380.539 681.573 383.924 684.713L379.513 689.796C376.792 687.547 373.733 686.333 370.494 686.275C368.414 686.238 367.282 686.938 367.26 688.138L367.259 688.218C367.238 689.378 368.147 690.034 371.931 690.981C377.865 692.447 382.435 694.209 382.332 699.968L382.331 700.048C382.239 705.247 378.052 708.933 371.333 708.813C366.574 708.729 362.877 707.383 359.881 704.889L363.858 699.479C366.386 701.324 369.168 702.334 371.648 702.378C373.528 702.411 374.462 701.628 374.479 700.628L374.481 700.548C374.504 699.268 373.554 698.691 369.69 697.742C363.276 696.228 359.313 694.077 359.407 688.838L359.408 688.758C359.51 683.039 364.09 679.72 370.888 679.841Z" fill="#F3F3F3"/>
<path d="M350.565 679.582L346.967 707.35L339.787 706.42L330.264 690.262L328.362 704.94L320.746 703.953L324.344 676.185L331.088 677.059L340.975 693.828L342.948 678.595L350.565 679.582Z" fill="#F3F3F3"/>
<path d="M314.64 674.268L307.986 701.466L286.111 696.114L287.68 689.703L302.095 693.23L303.102 689.111L290.047 685.917L291.502 679.972L304.557 683.166L305.612 678.854L291.003 675.279L292.571 668.869L314.64 674.268Z" fill="#F3F3F3"/>
<path d="M286.405 667.227L265.516 689.609L258.492 687.037L256.995 656.458L264.808 659.319L265.004 664.716L275.146 668.429L278.743 664.422L286.405 667.227ZM270.928 673.317L265.031 671.158L265.224 679.705L270.928 673.317Z" fill="#F3F3F3"/>
<path d="M250.432 653.422L237.829 678.425L230.899 674.932L236.013 664.788L222.291 670.593L214.076 666.452L228.961 660.472L226.358 641.287L234.68 645.482L236.286 657.938L240.244 656.394L243.503 649.929L250.432 653.422Z" fill="#F3F3F3"/>
<path d="M220.038 637.448L204.816 660.949L185.914 648.706L189.502 643.167L201.958 651.234L204.263 647.676L192.982 640.369L196.309 635.233L207.59 642.539L210.004 638.813L197.38 630.636L200.968 625.097L220.038 637.448Z" fill="#F3F3F3"/>
<path d="M193.967 620.035L176.338 641.789L166.052 633.454C162.726 630.759 161.132 628.025 160.88 625.35C160.613 623.075 161.32 620.867 163.058 618.723L163.108 618.661C165.803 615.336 169.362 614.565 172.998 615.606L173.953 603.817L180.914 609.458L179.957 619.598L180.019 619.648L182.599 621.738L187.938 615.15L193.967 620.035ZM178.771 626.462L174.793 623.238C172.742 621.576 170.755 621.614 169.471 623.199L169.42 623.261C168.035 624.97 168.573 626.848 170.593 628.485L174.54 631.683L178.771 626.462Z" fill="#F3F3F3"/>
<path d="M160.983 590.486C164.484 594 166.71 598.445 166.956 603.056L160.251 603.637C159.862 600.129 158.51 597.129 156.223 594.833C154.755 593.36 153.454 593.075 152.604 593.921L152.548 593.978C151.726 594.797 151.922 595.9 153.98 599.213C157.223 604.395 159.28 608.84 155.199 612.905L155.143 612.962C151.459 616.632 145.887 616.367 141.144 611.606C137.785 608.234 136.066 604.695 135.649 600.82L142.27 599.701C142.801 602.785 144.097 605.446 145.848 607.203C147.175 608.534 148.391 608.621 149.099 607.916L149.156 607.859C150.063 606.956 149.782 605.88 147.667 602.511C144.113 596.96 142.764 592.659 146.476 588.96L146.532 588.904C150.585 584.867 156.183 585.669 160.983 590.486Z" fill="#F3F3F3"/>
<path d="M129.25 569.223L123.899 573.223L116.044 562.714L121.395 558.715L129.25 569.223Z" fill="#F3F3F3"/>
<path d="M417.535 690.788L418.133 697.441L405.066 698.616L404.468 691.962L417.535 690.788Z" fill="#F3F3F3"/>
<path d="M109.598 521.75C111.977 526.103 112.872 530.993 111.819 535.488L105.22 534.172C105.826 530.695 105.367 527.436 103.813 524.593C102.815 522.768 101.646 522.131 100.593 522.706L100.523 522.745C99.5054 523.301 99.385 524.415 100.435 528.172C102.1 534.054 102.833 538.896 97.7783 541.659L97.7081 541.697C93.1452 544.191 87.8698 542.379 84.6468 536.482C82.3639 532.306 81.7029 528.427 82.3859 524.59L89.0554 525.366C88.7038 528.476 89.2043 531.393 90.3937 533.569C91.2954 535.219 92.4386 535.642 93.3161 535.163L93.3863 535.124C94.5095 534.51 94.5404 533.4 93.4517 529.573C91.5915 523.25 91.4982 518.743 96.0962 516.23L96.1664 516.191C101.186 513.448 106.337 515.783 109.598 521.75Z" fill="#F3F3F3"/>
<path d="M99.7598 503.965L73.8532 514.588L71.1064 507.889L80.4293 491.615L66.7358 497.23L63.8221 490.124L89.7287 479.501L92.3086 485.793L82.6345 502.686L96.8461 496.859L99.7598 503.965Z" fill="#F3F3F3"/>
<path d="M86.5896 470.121L59.6651 477.807L53.4835 456.152L59.83 454.341L63.9035 468.611L67.9806 467.447L64.2914 454.523L70.1764 452.843L73.8656 465.767L78.135 464.548L74.0066 450.086L80.3531 448.274L86.5896 470.121Z" fill="#F3F3F3"/>
<path d="M78.7261 442.105L48.9371 435.038L47.6938 427.662L73.5203 411.22L74.9032 419.425L70.3118 422.267L72.1069 432.917L77.3698 434.058L78.7261 442.105ZM65.7719 431.673L64.7281 425.48L57.3974 429.88L65.7719 431.673Z" fill="#F3F3F3"/>
<path d="M72.9087 404.015L44.9452 405.445L44.5489 397.695L55.8941 397.115L44.0567 388.068L43.5869 378.88L56.1525 388.851L71.532 377.091L72.0079 386.398L61.981 393.96L65.2819 396.635L72.5124 396.265L72.9087 404.015Z" fill="#F3F3F3"/>
<path d="M71.7372 369.699L43.7823 368.11L45.0602 345.626L51.6495 346.001L50.8075 360.817L55.0407 361.057L55.8033 347.639L61.9134 347.986L61.1508 361.405L65.5836 361.657L66.437 346.641L73.0264 347.015L71.7372 369.699Z" fill="#F3F3F3"/>
<path d="M73.9572 338.426L46.3285 333.882L48.4773 320.817C49.1719 316.594 50.7575 313.855 52.9571 312.312C54.8021 310.953 57.0698 310.475 59.7932 310.923L59.8721 310.936C64.0954 311.63 66.5277 314.341 67.4233 318.015L78.138 313.008L76.6838 321.849L67.4009 326.038L67.3879 326.117L66.8491 329.393L75.2167 330.769L73.9572 338.426ZM60.8497 328.406L61.6807 323.354C62.1091 320.749 61.0928 319.041 59.0798 318.71L59.0009 318.697C56.8301 318.34 55.4652 319.737 55.0433 322.303L54.2188 327.315L60.8497 328.406Z" fill="#F3F3F3"/>
<path d="M83.298 295.138C81.9785 299.92 79.2191 304.055 75.335 306.551L71.5101 301.014C74.3651 298.939 76.3026 296.279 77.1645 293.155C77.7178 291.15 77.3217 289.879 76.165 289.56L76.0879 289.539C74.9697 289.23 74.108 289.947 72.2488 293.376C69.3523 298.759 66.5091 302.746 60.9567 301.214L60.8796 301.193C55.8669 299.81 53.3384 294.838 55.1261 288.36C56.3924 283.771 58.6159 280.526 61.7766 278.245L66.027 283.443C63.6109 285.431 61.9406 287.875 61.2809 290.266C60.7807 292.078 61.3072 293.178 62.2711 293.444L62.3483 293.465C63.5821 293.806 64.3773 293.029 66.2578 289.523C69.3205 283.688 72.3897 280.385 77.4409 281.779L77.518 281.8C83.0319 283.322 85.1069 288.583 83.298 295.138Z" fill="#F3F3F3"/>
<path d="M86.0594 257.04L79.9355 254.372L85.1764 242.344L91.3003 245.012L86.0594 257.04Z" fill="#F3F3F3"/>
<path d="M117.574 216.461C114.971 220.683 111.166 223.881 106.738 225.193L104.614 218.807C107.935 217.613 110.539 215.6 112.24 212.842C113.331 211.072 113.307 209.741 112.285 209.111L112.217 209.069C111.23 208.46 110.202 208.907 107.458 211.68C103.172 216.039 99.328 219.072 94.4253 216.049L94.3572 216.007C89.9311 213.277 88.8933 207.797 92.4205 202.077C94.919 198.026 97.9611 195.531 101.634 194.224L104.261 200.403C101.386 201.637 99.0988 203.517 97.7971 205.628C96.8103 207.228 97.0083 208.431 97.8595 208.956L97.9276 208.998C99.0171 209.67 99.9976 209.146 102.783 206.306C107.355 201.559 111.225 199.246 115.685 201.997L115.753 202.039C120.622 205.041 121.144 210.673 117.574 216.461Z" fill="#F3F3F3"/>
<path d="M128.155 199.107L106.099 181.859L110.558 176.155L129.313 176.197L117.655 167.081L122.386 161.031L144.443 178.279L140.254 183.636L120.787 183.595L132.886 193.057L128.155 199.107Z" fill="#F3F3F3"/>
<path d="M151.038 170.907L131.029 151.32L146.782 135.227L151.499 139.844L141.118 150.449L144.147 153.415L153.549 143.811L157.922 148.092L148.521 157.696L151.694 160.802L162.215 150.054L166.931 154.671L151.038 170.907Z" fill="#F3F3F3"/>
<path d="M171.485 150.203L162.876 120.823L168.668 116.091L195.74 130.388L189.297 135.652L184.554 133.07L176.19 139.903L177.805 145.041L171.485 150.203ZM174.135 133.783L178.998 129.81L171.546 125.619L174.135 133.783Z" fill="#F3F3F3"/>
<path d="M201.698 126.289L186.61 102.702L193.147 98.5206L199.268 108.09L201.267 93.326L209.017 88.3685L206.576 104.223L224.409 111.762L216.558 116.784L205.023 111.816L204.333 116.009L208.235 122.108L201.698 126.289Z" fill="#F3F3F3"/>
<path d="M230.932 108.28L218.471 83.2059L238.638 73.1835L241.575 79.0938L228.286 85.6983L230.173 89.4952L242.209 83.5139L244.932 88.9944L232.897 94.9758L234.873 98.9518L248.341 92.2584L251.278 98.1687L230.932 108.28Z" fill="#F3F3F3"/>
<path d="M259.202 94.7244L249.47 68.4701L261.884 63.8683C265.897 62.3807 269.062 62.4021 271.492 63.5489C273.586 64.4792 275.125 66.2125 276.084 68.8005L276.112 68.8755C277.599 72.8886 276.449 76.344 273.7 78.9413L283.356 85.7711L274.954 88.8853L266.719 82.8943L266.644 82.9221L263.531 84.076L266.478 92.0273L259.202 94.7244ZM261.417 78.375L266.218 76.5955C268.693 75.6779 269.674 73.9494 268.965 72.0366L268.937 71.9616C268.172 69.8987 266.283 69.4047 263.845 70.3084L259.082 72.074L261.417 78.375Z" fill="#F3F3F3"/>
<path d="M301.436 81.4066C296.628 82.6276 291.669 82.2776 287.577 80.1392L290.494 74.0745C293.71 75.5274 296.981 75.8934 300.122 75.0958C302.138 74.5838 303.046 73.6102 302.75 72.4472L302.731 72.3696C302.445 71.2453 301.396 70.8515 297.496 70.934C291.385 71.0831 286.513 70.5872 285.095 65.0045L285.075 64.9269C283.795 59.887 286.863 55.2284 293.376 53.5741C297.989 52.4023 301.91 52.7272 305.457 54.3437L303.046 60.6102C300.121 59.4958 297.171 59.2547 294.767 59.8652C292.945 60.328 292.251 61.3299 292.497 62.2991L292.516 62.3766C292.831 63.6172 293.9 63.9237 297.877 63.8214C304.463 63.593 308.852 64.6243 310.142 69.703L310.162 69.7805C311.57 75.3245 308.026 79.7326 301.436 81.4066Z" fill="#F3F3F3"/>
<path d="M335.903 64.9416L335.189 58.2998L348.234 56.8978L348.948 63.5395L335.903 64.9416Z" fill="#F3F3F3"/>
<path d="M386.763 72.2298C381.806 72.0583 377.143 70.336 373.811 67.1388L378.307 62.1313C380.99 64.4255 384.028 65.6913 387.266 65.8033C389.344 65.8753 390.489 65.1944 390.53 63.9952L390.533 63.9152C390.573 62.7559 389.676 62.0845 385.908 61.0736C379.999 59.5083 375.46 57.6702 375.659 51.9136L375.662 51.8337C375.842 46.6368 380.089 43.0215 386.805 43.2539C391.562 43.4186 395.236 44.8264 398.19 47.3701L394.123 52.7127C391.626 50.8252 388.861 49.7689 386.383 49.6832C384.504 49.6181 383.557 50.3858 383.522 51.3852L383.519 51.4652C383.475 52.7444 384.415 53.3373 388.262 54.351C394.65 55.9728 398.576 58.1899 398.395 63.4268L398.392 63.5068C398.194 69.2233 393.559 72.465 386.763 72.2298Z" fill="#F3F3F3"/>
<path d="M407.08 72.8301L411.144 45.1266L418.307 46.1775L427.557 62.4929L429.705 47.8497L437.304 48.9644L433.24 76.6679L426.512 75.6808L416.908 58.7475L414.678 73.9448L407.08 72.8301Z" fill="#F3F3F3"/>
<path d="M442.91 78.7479L450.02 51.6657L471.802 57.3842L470.126 63.7679L455.772 59.9995L454.696 64.1006L467.695 67.5134L466.141 73.4328L453.142 70.02L452.014 74.3144L466.561 78.1335L464.885 84.5172L442.91 78.7479Z" fill="#F3F3F3"/>
<path d="M471.022 86.2617L492.285 64.234L499.265 66.9237L500.247 97.5237L492.484 94.532L492.378 89.1329L482.301 85.2494L478.637 89.1958L471.022 86.2617ZM486.6 80.4333L492.46 82.6914L492.411 74.1419L486.6 80.4333Z" fill="#F3F3F3"/>
<path d="M506.758 100.67L519.78 75.8822L526.65 79.4912L521.367 89.5478L535.184 83.9745L543.329 88.2532L528.345 93.9821L530.625 113.208L522.374 108.874L520.979 96.3927L516.995 97.8694L513.628 104.279L506.758 100.67Z" fill="#F3F3F3"/>
<path d="M536.88 117.152L552.495 93.9106L571.188 106.469L567.507 111.948L555.189 103.672L552.825 107.191L563.981 114.686L560.568 119.766L549.412 112.271L546.936 115.957L559.42 124.344L555.739 129.823L536.88 117.152Z" fill="#F3F3F3"/>
<path d="M562.655 135.001L580.646 113.546L590.791 122.054C594.071 124.804 595.619 127.564 595.826 130.243C596.055 132.523 595.31 134.718 593.537 136.832L593.485 136.894C590.735 140.173 587.163 140.884 583.546 139.782L582.393 151.553L575.528 145.796L576.655 135.674L576.594 135.623L574.05 133.489L568.601 139.987L562.655 135.001ZM577.956 128.831L581.88 132.121C583.902 133.817 585.89 133.813 587.2 132.25L587.252 132.188C588.665 130.503 588.159 128.616 586.167 126.946L582.274 123.682L577.956 128.831Z" fill="#F3F3F3"/>
<path d="M595.137 165.1C591.696 161.528 589.545 157.046 589.376 152.432L596.09 151.963C596.42 155.478 597.722 158.5 599.969 160.834C601.413 162.332 602.708 162.639 603.572 161.806L603.63 161.751C604.465 160.946 604.288 159.84 602.285 156.492C599.13 151.256 597.148 146.778 601.297 142.782L601.354 142.726C605.099 139.119 610.666 139.477 615.328 144.317C618.63 147.745 620.289 151.312 620.641 155.194L614.003 156.202C613.523 153.109 612.272 150.427 610.551 148.641C609.247 147.287 608.032 147.179 607.312 147.873L607.254 147.929C606.333 148.817 606.595 149.897 608.653 153.301C612.113 158.911 613.39 163.234 609.617 166.87L609.559 166.925C605.439 170.894 599.855 169.997 595.137 165.1Z" fill="#F3F3F3"/>
<path d="M626.508 186.894L631.925 182.985L639.603 193.624L634.186 197.533L626.508 186.894Z" fill="#F3F3F3"/>
<path d="M645.359 234.69C643.054 230.299 642.241 225.394 643.369 220.917L649.946 222.344C649.281 225.81 649.685 229.076 651.191 231.945C652.158 233.787 653.316 234.444 654.379 233.886L654.45 233.849C655.477 233.309 655.616 232.197 654.629 228.424C653.063 222.515 652.412 217.661 657.512 214.984L657.583 214.946C662.187 212.529 667.431 214.43 670.555 220.38C672.767 224.594 673.363 228.483 672.615 232.309L665.96 231.42C666.364 228.317 665.912 225.392 664.76 223.196C663.886 221.531 662.75 221.089 661.864 221.553L661.794 221.591C660.66 222.186 660.611 223.296 661.635 227.14C663.389 233.493 663.406 238.001 658.766 240.437L658.696 240.474C653.631 243.133 648.52 240.711 645.359 234.69Z" fill="#F3F3F3"/>
<path d="M654.897 252.639L680.979 242.453L683.613 249.197L674.017 265.311L687.803 259.927L690.597 267.081L664.516 277.267L662.042 270.933L671.999 254.205L657.691 259.793L654.897 252.639Z" fill="#F3F3F3"/>
<path d="M667.497 286.699L694.547 279.467L700.363 301.222L693.987 302.927L690.154 288.591L686.058 289.686L689.53 302.67L683.617 304.251L680.146 291.267L675.856 292.413L679.741 306.943L673.365 308.648L667.497 286.699Z" fill="#F3F3F3"/>
<path d="M674.888 314.844L704.554 322.41L705.673 329.806L679.574 345.811L678.329 337.585L682.968 334.82L681.352 324.141L676.109 322.912L674.888 314.844ZM687.665 325.492L688.605 331.701L696.008 327.425L687.665 325.492Z" fill="#F3F3F3"/>
<path d="M680.064 353.025L708.048 352.066L708.314 359.821L696.961 360.211L708.644 369.456L708.959 378.65L696.563 368.469L680.988 379.97L680.669 370.655L690.822 363.263L687.566 360.533L680.33 360.781L680.064 353.025Z" fill="#F3F3F3"/>
<path d="M680.659 387.357L708.583 389.415L706.927 411.874L700.345 411.389L701.436 396.589L697.208 396.278L696.22 409.681L690.116 409.231L691.104 395.828L686.676 395.501L685.571 410.5L678.988 410.015L680.659 387.357Z" fill="#F3F3F3"/>
<path d="M677.913 418.588L705.462 423.596L703.094 436.622C702.328 440.833 700.697 443.545 698.472 445.052C696.604 446.379 694.329 446.819 691.613 446.325L691.534 446.311C687.323 445.546 684.937 442.794 684.103 439.106L673.306 443.932L674.909 435.117L684.261 431.085L684.275 431.006L684.869 427.739L676.525 426.223L677.913 418.588ZM690.851 428.827L689.935 433.864C689.463 436.462 690.45 438.186 692.457 438.551L692.536 438.565C694.701 438.959 696.089 437.585 696.554 435.027L697.462 430.029L690.851 428.827Z" fill="#F3F3F3"/>
<path d="M667.846 461.712C669.246 456.954 672.074 452.866 676 450.435L679.731 456.035C676.842 458.062 674.86 460.69 673.945 463.798C673.359 465.794 673.733 467.071 674.884 467.41L674.961 467.432C676.074 467.76 676.948 467.058 678.864 463.661C681.851 458.327 684.761 454.388 690.286 456.013L690.363 456.036C695.352 457.503 697.796 462.516 695.9 468.963C694.557 473.53 692.279 476.738 689.081 478.965L684.918 473.697C687.367 471.749 689.078 469.333 689.778 466.954C690.309 465.151 689.801 464.042 688.842 463.76L688.765 463.737C687.537 463.376 686.729 464.139 684.79 467.613C681.629 473.396 678.505 476.647 673.478 475.168L673.401 475.146C667.914 473.532 665.927 468.236 667.846 461.712Z" fill="#F3F3F3"/>
<path d="M664.445 499.759L670.523 502.53L665.081 514.468L659.003 511.697L664.445 499.759Z" fill="#F3F3F3"/>
<path d="M632.252 539.803C634.926 535.625 638.785 532.491 643.234 531.254L645.25 537.674C641.91 538.813 639.272 540.781 637.525 543.51C636.404 545.262 636.407 546.594 637.417 547.241L637.485 547.284C638.462 547.909 639.497 547.479 642.286 544.753C646.645 540.467 650.54 537.498 655.391 540.604L655.459 540.647C659.838 543.45 660.784 548.947 657.161 554.607C654.595 558.616 651.511 561.059 647.817 562.304L645.293 556.082C648.19 554.896 650.508 553.055 651.845 550.967C652.858 549.383 652.68 548.177 651.838 547.638L651.771 547.595C650.693 546.905 649.704 547.411 646.871 550.205C642.22 554.874 638.311 557.121 633.898 554.296L633.831 554.253C629.013 551.17 628.586 545.53 632.252 539.803Z" fill="#F3F3F3"/>
<path d="M621.381 556.976L643.145 574.593L638.59 580.22L619.838 579.863L631.342 589.174L626.51 595.144L604.746 577.527L609.024 572.242L628.488 572.61L616.549 562.946L621.381 556.976Z" fill="#F3F3F3"/>
<path d="M598.028 584.787L617.705 604.708L601.683 620.534L597.045 615.838L607.603 605.409L604.623 602.393L595.061 611.838L590.761 607.484L600.322 598.039L597.202 594.88L586.502 605.449L581.864 600.754L598.028 584.787Z" fill="#F3F3F3"/>
<path d="M577.235 605.145L585.35 634.666L579.478 639.3L552.65 624.549L559.181 619.394L563.88 622.055L572.358 615.364L570.83 610.2L577.235 605.145ZM574.31 621.518L569.381 625.409L576.761 629.724L574.31 621.518Z" fill="#F3F3F3"/>
<path d="M546.625 628.547L561.315 652.385L554.708 656.456L548.748 646.785L546.501 661.513L538.669 666.34L541.377 650.529L523.673 642.691L531.608 637.802L543.057 642.962L543.817 638.782L540.019 632.618L546.625 628.547Z" fill="#F3F3F3"/>
<path d="M517.092 646.062L529.13 671.343L508.797 681.025L505.96 675.066L519.358 668.686L517.535 664.857L505.401 670.636L502.77 665.11L514.904 659.332L512.995 655.323L499.416 661.789L496.579 655.83L517.092 646.062Z" fill="#F3F3F3"/>
<path d="M488.599 659.141L497.888 685.555L485.398 689.948C481.36 691.368 478.196 691.293 475.786 690.106C473.708 689.14 472.199 687.381 471.283 684.778L471.256 684.702C469.837 680.665 471.045 677.229 473.837 674.678L464.297 667.687L472.75 664.715L480.884 670.843L480.959 670.817L484.091 669.715L481.278 661.715L488.599 659.141ZM486.108 675.451L481.278 677.149C478.788 678.025 477.779 679.737 478.455 681.662L478.482 681.737C479.212 683.812 481.093 684.338 483.546 683.476L488.338 681.79L486.108 675.451Z" fill="#F3F3F3"/>
<path d="M446.147 671.747C450.974 670.607 455.926 671.04 459.982 673.247L456.964 679.262C453.772 677.755 450.508 677.334 447.355 678.079C445.33 678.557 444.406 679.515 444.682 680.683L444.7 680.761C444.967 681.89 446.009 682.301 449.91 682.284C456.023 682.238 460.886 682.816 462.209 688.422L462.228 688.499C463.423 693.56 460.278 698.167 453.737 699.711C449.105 700.805 445.19 700.414 441.671 698.739L444.187 692.513C447.093 693.677 450.038 693.968 452.452 693.398C454.282 692.965 454.993 691.975 454.763 691.002L454.745 690.924C454.451 689.679 453.388 689.354 449.409 689.39C442.82 689.507 438.449 688.402 437.244 683.303L437.226 683.225C435.911 677.658 439.529 673.31 446.147 671.747Z" fill="#F3F3F3"/>
</svg>
