<svg width="754" height="254" viewBox="0 0 754 254" fill="none" xmlns="http://www.w3.org/2000/svg">
<path d="M371.126 177.499C376.085 177.588 380.776 179.231 384.161 182.372L379.75 187.454C377.029 185.206 373.971 183.991 370.731 183.933C368.651 183.896 367.519 184.596 367.497 185.796L367.496 185.876C367.475 187.036 368.384 187.692 372.168 188.64C378.103 190.105 382.672 191.867 382.569 197.626L382.568 197.706C382.476 202.905 378.289 206.591 371.57 206.472C366.811 206.387 363.115 205.041 360.118 202.548L364.095 197.137C366.623 198.983 369.405 199.992 371.885 200.036C373.765 200.07 374.699 199.286 374.717 198.287L374.718 198.207C374.741 196.927 373.791 196.35 369.927 195.401C363.513 193.887 359.551 191.736 359.644 186.497L359.645 186.417C359.747 180.698 364.327 177.378 371.126 177.499Z" fill="#F3F3F3"/>
<path d="M350.802 177.241L347.204 205.009L340.024 204.078L330.501 187.921L328.599 202.598L320.983 201.611L324.581 173.843L331.325 174.717L341.212 191.487L343.185 176.254L350.802 177.241Z" fill="#F3F3F3"/>
<path d="M314.877 171.926L308.223 199.124L286.349 193.772L287.917 187.361L302.332 190.888L303.339 186.769L290.284 183.576L291.739 177.631L304.794 180.825L305.849 176.512L291.24 172.938L292.808 166.527L314.877 171.926Z" fill="#F3F3F3"/>
<path d="M286.642 164.886L265.753 187.268L258.729 184.696L257.232 154.117L265.045 156.977L265.241 162.374L275.383 166.088L278.98 162.08L286.642 164.886ZM271.165 170.975L265.268 168.816L265.461 177.363L271.165 170.975Z" fill="#F3F3F3"/>
<path d="M250.669 151.081L238.066 176.084L231.136 172.59L236.25 162.446L222.528 168.251L214.313 164.11L229.198 158.13L226.595 138.945L234.918 143.14L236.523 155.596L240.481 154.053L243.74 147.588L250.669 151.081Z" fill="#F3F3F3"/>
<path d="M220.275 135.107L205.053 158.608L186.151 146.365L189.739 140.825L202.195 148.893L204.5 145.334L193.219 138.028L196.546 132.891L207.827 140.198L210.241 136.471L197.617 128.295L201.205 122.755L220.275 135.107Z" fill="#F3F3F3"/>
<path d="M194.204 117.694L176.575 139.448L166.289 131.112C162.963 128.418 161.369 125.684 161.117 123.009C160.85 120.733 161.557 118.526 163.295 116.382L163.345 116.319C166.04 112.994 169.6 112.223 173.235 113.264L174.19 101.476L181.151 107.117L180.194 117.256L180.256 117.306L182.836 119.397L188.175 112.808L194.204 117.694ZM179.008 124.12L175.03 120.897C172.979 119.235 170.992 119.272 169.708 120.857L169.657 120.919C168.272 122.629 168.81 124.506 170.83 126.143L174.777 129.341L179.008 124.12Z" fill="#F3F3F3"/>
<path d="M161.22 88.1448C164.721 91.6586 166.947 96.1033 167.193 100.714L160.488 101.296C160.099 97.7877 158.747 94.787 156.46 92.4917C154.992 91.0182 153.691 90.7329 152.841 91.5799L152.785 91.6364C151.963 92.4551 152.159 93.5585 154.217 96.8716C157.46 102.054 159.517 106.498 155.436 110.563L155.38 110.62C151.696 114.29 146.124 114.025 141.382 109.265C138.022 105.892 136.303 102.354 135.886 98.478L142.507 97.3589C143.038 100.443 144.335 103.104 146.085 104.861C147.412 106.193 148.628 106.28 149.336 105.574L149.393 105.518C150.3 104.614 150.019 103.539 147.904 100.169C144.35 94.6188 143.001 90.3171 146.713 86.6187L146.77 86.5623C150.822 82.5251 156.42 83.3275 161.22 88.1448Z" fill="#F3F3F3"/>
<path d="M129.487 66.8818L124.136 70.8811L116.281 60.3723L121.632 56.373L129.487 66.8818Z" fill="#F3F3F3"/>
<path d="M417.772 188.447L418.37 195.1L405.303 196.274L404.705 189.621L417.772 188.447Z" fill="#F3F3F3"/>
<path d="M109.835 19.4088C112.214 23.7611 113.109 28.651 112.056 33.1467L105.457 31.8308C106.063 28.3538 105.604 25.0948 104.05 22.2518C103.052 20.4266 101.883 19.7892 100.831 20.3647L100.76 20.4031C99.7424 20.9594 99.6221 22.0737 100.672 25.8302C102.338 31.7122 103.07 36.5544 98.0153 39.317L97.9451 39.3553C93.3822 41.8493 88.1069 40.0374 84.8839 34.1408C82.6009 29.964 81.94 26.0858 82.623 22.248L89.2925 23.0244C88.9408 26.134 89.4414 29.0514 90.6308 31.2276C91.5325 32.8772 92.6757 33.3008 93.5532 32.8212L93.6234 32.7828C94.7465 32.1689 94.7775 31.058 93.6888 27.2313C91.8285 20.9089 91.7353 16.4013 96.3332 13.8882L96.4034 13.8498C101.423 11.1064 106.574 13.4419 109.835 19.4088Z" fill="#F3F3F3"/>
<path d="M99.9969 1.62314L74.0902 12.2461L71.3434 5.54741L80.6663 -10.7263L66.9728 -5.11131L64.0591 -12.2171L89.9657 -22.8401L92.5456 -16.5485L82.8715 0.344791L97.0831 -5.48267L99.9969 1.62314Z" fill="#F3F3F3"/>
<path d="M664.682 -2.58292L670.76 0.18802L665.318 12.126L659.24 9.35506L664.682 -2.58292Z" fill="#F3F3F3"/>
<path d="M632.489 37.461C635.163 33.2835 639.022 30.1493 643.471 28.9125L645.488 35.3328C642.147 36.4713 639.509 38.4399 637.762 41.1688C636.641 42.9206 636.644 44.2521 637.654 44.899L637.722 44.9421C638.699 45.5675 639.734 45.1377 642.523 42.4117C646.882 38.1252 650.777 35.1567 655.628 38.2621L655.696 38.3052C660.075 41.1086 661.021 46.6057 657.398 52.2655C654.832 56.2745 651.748 58.7175 648.054 59.9624L645.53 53.7401C648.427 52.5545 650.745 50.7138 652.082 48.6251C653.095 47.0417 652.917 45.8355 652.075 45.2964L652.008 45.2533C650.93 44.5632 649.941 45.0698 647.108 47.8632C642.457 52.5324 638.548 54.7799 634.135 51.9549L634.068 51.9118C629.25 48.828 628.823 43.1881 632.489 37.461Z" fill="#F3F3F3"/>
<path d="M621.618 54.6348L643.382 72.2513L638.827 77.8787L620.075 77.5214L631.579 86.8329L626.747 92.8024L604.983 75.1859L609.261 69.9005L628.725 70.2681L616.786 60.6042L621.618 54.6348Z" fill="#F3F3F3"/>
<path d="M598.265 82.4458L617.942 102.366L601.92 118.192L597.282 113.496L607.84 103.068L604.86 100.051L595.298 109.496L590.998 105.142L600.559 95.6972L597.439 92.5384L586.739 103.108L582.101 98.4122L598.265 82.4458Z" fill="#F3F3F3"/>
<path d="M577.472 102.803L585.587 132.324L579.715 136.958L552.887 122.208L559.418 117.053L564.117 119.714L572.595 113.023L571.067 107.859L577.472 102.803ZM574.547 119.176L569.618 123.067L576.998 127.382L574.547 119.176Z" fill="#F3F3F3"/>
<path d="M546.862 126.206L561.552 150.043L554.945 154.114L548.986 144.443L546.738 159.172L538.906 163.998L541.614 148.187L523.91 140.349L531.845 135.46L543.294 140.621L544.054 136.44L540.256 130.277L546.862 126.206Z" fill="#F3F3F3"/>
<path d="M517.329 143.721L529.367 169.001L509.034 178.683L506.197 172.724L519.595 166.344L517.772 162.516L505.638 168.294L503.007 162.769L515.141 156.99L513.232 152.982L499.653 159.448L496.816 153.489L517.329 143.721Z" fill="#F3F3F3"/>
<path d="M488.836 156.8L498.125 183.214L485.635 187.606C481.597 189.026 478.433 188.952 476.023 187.764C473.945 186.799 472.436 185.04 471.52 182.436L471.494 182.361C470.074 178.323 471.282 174.887 474.074 172.337L464.535 165.346L472.987 162.373L481.121 168.502L481.196 168.475L484.328 167.374L481.515 159.374L488.836 156.8ZM486.345 173.109L481.515 174.808C479.025 175.684 478.016 177.396 478.693 179.32L478.719 179.396C479.449 181.471 481.33 181.997 483.783 181.134L488.575 179.449L486.345 173.109Z" fill="#F3F3F3"/>
<path d="M446.384 169.406C451.211 168.266 456.163 168.699 460.219 170.906L457.201 176.921C454.009 175.414 450.745 174.993 447.592 175.738C445.567 176.216 444.643 177.174 444.919 178.342L444.937 178.419C445.204 179.548 446.246 179.96 450.147 179.943C456.26 179.897 461.123 180.474 462.446 186.08L462.465 186.158C463.66 191.219 460.515 195.825 453.975 197.37C449.342 198.464 445.427 198.073 441.908 196.397L444.424 190.172C447.33 191.335 450.275 191.626 452.689 191.056C454.519 190.624 455.23 189.634 455 188.661L454.982 188.583C454.688 187.337 453.625 187.013 449.646 187.048C443.057 187.166 438.686 186.061 437.482 180.961L437.463 180.883C436.148 175.316 439.766 170.969 446.384 169.406Z" fill="#F3F3F3"/>
</svg>
